:SAMPLES-PER-SECOND 30
:FULLY-SPECIFIED
:DEGREES
444
root  -4.12024 41.0461 0.231215 -22.4747 -89.0354 17.3226
RightUpLeg  -22.8774 3.96772 -1.70637
RightLeg  47.1199 -11.913 -13.754
RightFoot  10.9611 0.0259177 0.231341
RightToes  7.56698e-010 0 -3.6325e-017
Spine  15.5082 -0.773402 5.56162
Spine1  8.75668 0.308217 -2.21116
HEad  -9.88882 6.59183 -9.84919
LeftShoulder1  3.25739 -8.96112 -19.6625
LeftArm  -15.7124 -18.2642 -55.0958
LeftForeArm  168.997 -58.8377 -163.676
LeftHand  -0.151177 4.69209 24.9675
RightShoulder  1.67773 4.49839 14.1094
RightArm  -41.3238 29.3895 54.4334
RightForeArm  -1.04553 12.562 2.83921
RightHand  -2.27491 9.12908 -18.3829
LeftUpLeg  -4.11508 -5.12525 -8.42446
LeftLeg  37.3076 0.23838 0.503286
LeftFoot  2.31112 1.29925 -11.2037
LeftToes  -3.13779e-010 -2.47553e-011 -5.36621e-011
445
root  -4.44748 40.5331 0.853348 -137.195 -85.1022 133.503
RightUpLeg  -28.9109 4.38624 -0.0866977
RightLeg  43.1003 -6.9623 -7.18345
RightFoot  11.6585 -1.68476 8.56809
RightToes  7.56698e-010 0 -3.6325e-017
Spine  13.6194 0.0162534 5.54863
Spine1  6.48528 1.14793 -2.6495
HEad  -9.20475 9.18199 -13.7485
LeftShoulder1  3.09114 -8.3171 -19.6861
LeftArm  -16.1887 -18.149 -54.4702
LeftForeArm  176.918 -47.361 -169.555
LeftHand  0.00543466 5.42702 25.5528
RightShoulder  1.71618 4.61182 14.3022
RightArm  -37.9448 29.7076 54.7424
RightForeArm  -2.32067 7.2561 2.45476
RightHand  -2.18642 8.95298 -17.9007
LeftUpLeg  2.72326 -3.71331 -10.0037
LeftLeg  34.554 2.46584 2.17526
LeftFoot  1.44409 0.766738 -6.94888
LeftToes  -3.13779e-010 -2.47553e-011 -5.36621e-011
446
root  -4.99216 39.6116 1.30286 -148.27 -82.1228 147.005
RightUpLeg  -33.9166 3.49486 2.65937
RightLeg  40.9241 -6.34216 -6.10527
RightFoot  14.2238 -2.55971 11.7939
RightToes  7.56698e-010 0 -3.6325e-017
Spine  10.3863 0.0369561 4.05585
Spine1  4.26173 0.765768 -1.81786
HEad  -9.91043 12.3025 -16.863
LeftShoulder1  2.85352 -7.26462 -20.0601
LeftArm  -16.7071 -17.8495 -52.7525
LeftForeArm  -178.317 -40.7655 -171.91
LeftHand  -0.203918 4.49745 26.2499
RightShoulder  1.88518 5.00856 15.3999
RightArm  -34.6155 27.2707 55.447
RightForeArm  -0.69477 12.2388 4.16217
RightHand  -2.32147 9.55176 -18.2384
LeftUpLeg  8.82788 -1.97456 -10.9138
LeftLeg  27.1556 0.877063 1.07146
LeftFoot  -1.74599 0.437835 -5.11174
LeftToes  -3.13779e-010 -2.47553e-011 -5.36621e-011
447
root  -5.41233 38.3192 1.57205 -136.051 -81.0113 136.265
RightUpLeg  -36.2858 3.31639 4.41659
RightLeg  41.3115 -9.75321 -9.34466
RightFoot  13.508 -1.44616 6.80188
RightToes  7.56698e-010 0 -3.6325e-017
Spine  7.30888 -0.962761 1.50239
Spine1  3.81691 -0.958626 0.330742
HEad  -11.5355 14.7211 -18.3728
LeftShoulder1  2.50328 -5.93118 -20.0814
LeftArm  -18.4708 -19.6844 -50.3077
LeftForeArm  -176.193 -41.7405 -171.705
LeftHand  -0.355043 3.83626 26.226
RightShoulder  2.03576 5.20414 16.7582
RightArm  -30.2142 23.7646 57.0652
RightForeArm  0.257001 26.9577 5.74904
RightHand  -2.3349 9.80919 -18.0391
LeftUpLeg  13.8772 0.977648 -10.8042
LeftLeg  20.6504 -5.85367 -1.18801
LeftFoot  -9.57344 0.118705 -3.05042
LeftToes  -3.13779e-010 -2.47553e-011 -5.36621e-011
448
root  -5.61982 36.9389 1.73858 -116.961 -80.4532 117.385
RightUpLeg  -36.8129 4.49769 3.70899
RightLeg  43.9478 -13.409 -13.7516
RightFoot  6.75879 0.340282 -2.03425
RightToes  7.56698e-010 0 -3.6325e-017
Spine  5.15584 -2.11305 -1.48577
Spine1  4.88831 -2.93366 2.48054
HEad  -13.0739 15.5257 -19.4574
LeftShoulder1  2.20043 -4.97852 -19.4564
LeftArm  -21.462 -23.5212 -47.8316
LeftForeArm  -178.185 -49.7012 -168.898
LeftHand  -0.227793 4.38948 26.0935
RightShoulder  2.02085 4.87201 17.5706
RightArm  -31.8388 20.9691 58.6101
RightForeArm  7.77863 46.8588 11.633
RightHand  -1.9939 8.72816 -16.6121
LeftUpLeg  16.5484 2.74183 -11.391
LeftLeg  19.1335 -12.7481 -2.96292
LeftFoot  -19.4696 0.204753 0.940758
LeftToes  -3.13779e-010 -2.47553e-011 -5.36621e-011
449
root  -5.7361 35.9172 1.92566 -103.076 -79.5603 103.388
RightUpLeg  -37.4976 5.90754 2.0228
RightLeg  47.7811 -15.237 -17.5085
RightFoot  -1.86802 0.636565 -7.36389
RightToes  7.56698e-010 0 -3.6325e-017
Spine  3.86358 -2.5406 -2.95117
Spine1  6.38959 -3.83117 3.24979
HEad  -14.7655 14.7706 -21.4414
LeftShoulder1  2.13097 -4.89578 -18.8405
LeftArm  -23.6018 -26.9277 -46.2077
LeftForeArm  172.853 -61.7828 -161.815
LeftHand  -0.185011 4.5787 26.1328
RightShoulder  1.90566 4.34845 17.7256
RightArm  -32.2478 19.9054 58.5624
RightForeArm  21.203 67.0431 26.7317
RightHand  -1.51315 6.70918 -14.7573
LeftUpLeg  16.8291 0.405867 -14.3783
LeftLeg  21.043 -11.3281 -2.52252
LeftFoot  -26.998 0.918641 5.65765
LeftToes  -3.13779e-010 -2.47553e-011 -5.36621e-011
450
root  -5.72003 35.7331 2.04274 -95.1056 -79.5455 95.0936
RightUpLeg  -37.9909 5.2364 1.41845
RightLeg  49.691 -15.4928 -18.9108
RightFoot  -4.55813 0.423142 -7.60146
RightToes  7.56698e-010 0 -3.6325e-017
Spine  3.81671 -2.52923 -2.56698
Spine1  8.05947 -3.94976 3.17177
HEad  -17.0298 13.3384 -23.5746
LeftShoulder1  2.22027 -5.39191 -18.3977
LeftArm  -23.1388 -27.9164 -46.8044
LeftForeArm  144.331 -75.5562 -136.221
LeftHand  -0.486484 3.31607 26.8791
RightShoulder  1.86055 4.20472 17.5854
RightArm  -32.9029 19.2678 56.6732
RightForeArm  67.179 79.2856 75.473
RightHand  -1.16158 4.86057 -13.407
LeftUpLeg  16.4352 -3.13204 -16.5643
LeftLeg  22.8937 -6.17631 -0.993302
LeftFoot  -28.4107 1.17081 6.68943
LeftToes  -3.13779e-010 -2.47553e-011 -5.36621e-011
451
root  -5.50985 36.635 1.8412 -82.0098 -80.1347 81.1281
RightUpLeg  -35.7071 1.56217 1.92646
RightLeg  45.4503 -15.8554 -16.8224
RightFoot  1.60051 0.775905 -6.6315
RightToes  7.56698e-010 0 -3.6325e-017
Spine  5.4236 -2.82191 -2.59968
Spine1  9.33868 -4.35737 3.62963
HEad  -18.4655 12.0728 -23.6801
LeftShoulder1  2.27141 -5.98397 -17.299
LeftArm  -20.4265 -26.9451 -50.3626
LeftForeArm  51.591 -75.5663 -45.3609
LeftHand  -0.985238 1.41079 28.4033
RightShoulder  1.93261 4.53096 17.4917
RightArm  -34.3155 16.7979 55.4079
RightForeArm  118.825 76.6587 129.436
RightHand  -1.06807 3.97124 -13.4559
LeftUpLeg  15.2634 -5.9288 -15.5294
LeftLeg  24.823 -5.66173 -2.10143
LeftFoot  -21.045 0.395154 2.37559
LeftToes  -3.13779e-010 -2.47553e-011 -5.36621e-011
452
root  -5.10263 38.2227 1.29599 -63.2368 -80.2791 61.4195
RightUpLeg  -30.1575 -3.26445 2.62459
RightLeg  33.9104 -14.404 -10.6195
RightFoot  12.2987 0.928931 -4.23824
RightToes  7.56698e-010 0 -3.6325e-017
Spine  8.29349 -3.11239 -3.32823
Spine1  9.24404 -4.80625 4.29138
HEad  -17.3079 10.9605 -20.5645
LeftShoulder1  2.23108 -6.60012 -15.2768
LeftArm  -16.5899 -26.3191 -55.3297
LeftForeArm  15.401 -51.4949 -12.0735
LeftHand  -1.48993 -0.342333 29.8382
RightShoulder  2.06246 4.98442 17.7523
RightArm  -35.34 12.3825 56.3336
RightForeArm  126.198 74.361 138.093
RightHand  -1.17273 4.03816 -14.6303
LeftUpLeg  10.9007 -6.5459 -12.0534
LeftLeg  29.6281 -7.32021 -4.16196
LeftFoot  -6.5194 0.116394 -2.51182
LeftToes  -3.13779e-010 -2.47553e-011 -5.36621e-011
